<svg width="28" height="29" viewBox="0 0 28 29" fill="none" xmlns="http://www.w3.org/2000/svg">
<path d="M19.833 2.62305H8.16634C4.94468 2.62305 2.33301 5.23472 2.33301 8.45638V20.123C2.33301 23.3447 4.94468 25.9564 8.16634 25.9564H19.833C23.0547 25.9564 25.6663 23.3447 25.6663 20.123V8.45638C25.6663 5.23472 23.0547 2.62305 19.833 2.62305Z" stroke="#3F85EF" stroke-width="2" stroke-linecap="round" stroke-linejoin="round"/>
<path d="M18.6667 13.5544C18.8106 14.5254 18.6448 15.517 18.1927 16.3883C17.7406 17.2595 17.0253 17.9661 16.1485 18.4074C15.2718 18.8487 14.2782 19.0023 13.3091 18.8463C12.34 18.6904 11.4447 18.2328 10.7506 17.5388C10.0566 16.8447 9.599 15.9494 9.44306 14.9803C9.28712 14.0112 9.44073 13.0176 9.88203 12.1409C10.3233 11.2641 11.0299 10.5488 11.9011 10.0967C12.7724 9.64461 13.764 9.47877 14.735 9.62275C15.7254 9.76961 16.6423 10.2311 17.3503 10.9391C18.0583 11.6471 18.5198 12.564 18.6667 13.5544Z" stroke="#3F85EF" stroke-width="2" stroke-linecap="round" stroke-linejoin="round"/>
<path d="M20.417 7.87305H20.4287" stroke="#3F85EF" stroke-width="2" stroke-linecap="round" stroke-linejoin="round"/>
</svg>
