<svg width="22" height="22" viewBox="0 0 22 22" fill="none" xmlns="http://www.w3.org/2000/svg">
<path d="M20.5206 15.9335V18.878C20.5218 19.1514 20.4658 19.422 20.3562 19.6724C20.2467 19.9229 20.0861 20.1477 19.8847 20.3325C19.6833 20.5173 19.4455 20.658 19.1865 20.7456C18.9276 20.8332 18.6532 20.8657 18.3809 20.8411C15.3606 20.5129 12.4594 19.4808 9.91038 17.8278C7.53885 16.3209 5.52821 14.3102 4.02124 11.9387C2.36245 9.37809 1.33014 6.46276 1.00797 3.42888C0.983439 3.15745 1.0157 2.8839 1.10268 2.62562C1.18967 2.36735 1.32949 2.13002 1.51322 1.92874C1.69696 1.72746 1.92059 1.56664 2.16988 1.45653C2.41918 1.34641 2.68867 1.28941 2.9612 1.28916H5.90577C6.38211 1.28447 6.8439 1.45315 7.20507 1.76376C7.56624 2.07436 7.80214 2.5057 7.86881 2.97738C7.9931 3.9197 8.22358 4.84495 8.55588 5.73546C8.68794 6.08677 8.71652 6.46857 8.63823 6.83563C8.55995 7.20268 8.37809 7.5396 8.11419 7.80647L6.86766 9.053C8.26491 11.5103 10.2995 13.5449 12.7568 14.9421L14.0033 13.6956C14.2702 13.4317 14.6071 13.2498 14.9742 13.1716C15.3412 13.0933 15.723 13.1219 16.0743 13.2539C16.9649 13.5862 17.8901 13.8167 18.8324 13.941C19.3092 14.0083 19.7447 14.2484 20.0559 14.6158C20.3672 14.9832 20.5326 15.4521 20.5206 15.9335Z" stroke="#87B1CA" stroke-width="2" stroke-linecap="round" stroke-linejoin="round"/>
</svg>
